<?xml version="1.0" encoding="UTF-8" standalone="no"?>
<svg width="114px" height="66px" viewBox="0 0 114 66" version="1.1" xmlns="http://www.w3.org/2000/svg" xmlns:xlink="http://www.w3.org/1999/xlink" xmlns:sketch="http://www.bohemiancoding.com/sketch/ns">
    <!-- Generator: Sketch 3.3.2 (12043) - http://www.bohemiancoding.com/sketch -->
    <title>header-logo-play</title>
    <desc>Created with Sketch.</desc>
    <defs></defs>
    <g id="01.Home" stroke="none" stroke-width="1" fill="none" fill-rule="evenodd" sketch:type="MSPage">
        <g id="Artboard-7" sketch:type="MSArtboardGroup" transform="translate(-493.000000, -137.000000)">
            <rect id="Rectangle-122-Copy-2" opacity="0.220207556" sketch:type="MSShapeGroup" x="493" y="137" width="114" height="66"></rect>
            <g id="Play" sketch:type="MSLayerGroup" transform="translate(502.000000, 152.000000)" fill="#FFFFFF">
                <path d="M13.2159746,43.9907456 L26.7702665,28.4221311 C28.3069283,26.6598361 28.3271475,24.0163934 26.8107049,22.2336066 L9.46260174,1.74180328 C7.70352834,-0.327868852 4.569547,-0.450819672 2.64871972,1.47540984 L1.39512718,2.74590164 L1.39512718,2.74590164 C-0.283069283,4.44672131 -0.424603924,7.15163934 1.07161943,8.99590164 L11.5856214,22.3155738 C11.8802633,22.6932325 12.1108351,23.1038287 12.2773367,23.532842 C14.2509582,26.7418926 15.4070567,30.5298137 15.4070567,34.6106557 C15.4070567,37.9815853 14.6232654,41.1692017 13.2159746,43.9907456 Z M0.707636883,41.5433911 C0.840754083,41.3063169 0.995739139,41.0777784 1.1727156,40.8606557 L11.5249637,28.2786885 C11.8613692,27.8695599 12.1189587,27.4175979 12.2977322,26.9426137 C12.1178217,27.4332411 11.8536611,27.9001226 11.5047444,28.3196721 L11.5047444,28.3196721 L1.15249637,40.9016393 C0.984406933,41.1056175 0.836155724,41.3203841 0.707636883,41.5433911 Z" id="Shape" sketch:type="MSShapeGroup"></path>
                <path d="M11.5047444,28.3196721 L1.15249637,40.9016393 C-0.384165455,42.7663934 -0.262850048,45.5327869 1.43556565,47.2540984 L2.68915819,48.5245902 C4.58976623,50.4508197 7.68330911,50.3483607 9.46260174,48.3196721 L13.2031601,44.0163934 C14.6185065,41.1885246 15.4070567,37.9918033 15.4070567,34.6106557 C15.4070567,30.4303279 14.1939026,26.557377 12.1315407,23.2991803 C12.8998716,24.897541 12.6976793,26.8852459 11.5047444,28.3196721 L11.5047444,28.3196721 Z" id="Shape-Copy" opacity="0.2" sketch:type="MSShapeGroup"></path>
                <path d="M35.7071681,40.2663934 L31.6835404,40.2663934 L31.6835404,16.557377 L35.7071681,16.557377 L35.7071681,19.0368852 C36.2733067,17.3770492 38.3154494,16.1885246 41.1057037,16.1885246 C43.4915734,16.1885246 45.4932776,17.0491803 47.1108164,18.7704918 C48.7485744,20.4713115 49.5573437,22.5819672 49.5573437,25.1229508 C49.5573437,27.6639344 48.7485744,29.7745902 47.1108164,31.5163934 C45.4932776,33.2172131 43.4915734,34.057377 41.1057037,34.057377 C38.3154494,34.057377 36.2733067,32.8688525 35.7071681,31.2090164 L35.7071681,40.2663934 L35.7071681,40.2663934 Z M36.8798837,21.3934426 C35.9093605,22.3770492 35.4038796,23.647541 35.4038796,25.1434426 C35.4038796,26.6393443 35.9093605,27.8893443 36.8798837,28.8934426 C37.8908454,29.8770492 39.1242187,30.3893443 40.5800036,30.3893443 C42.0357885,30.3893443 43.1882849,29.8770492 44.1385889,28.8934426 C45.1091122,27.9098361 45.5741545,26.6393443 45.5741545,25.1434426 C45.5741545,23.647541 45.1091122,22.397541 44.1385889,21.3934426 C43.2085041,20.4098361 42.0155693,19.897541 40.5800036,19.897541 C39.144438,19.897541 37.8908454,20.4098361 36.8798837,21.3934426 L36.8798837,21.3934426 Z M50.9524709,10 L54.9760986,10 L54.9760986,28.0942623 C54.9760986,29.7540984 55.5220179,30.4713115 56.998022,30.4713115 C57.4630644,30.4713115 57.8674491,30.4303279 58.2111761,30.3278689 L58.2111761,33.9754098 C57.7461337,34.1188525 57.0991182,34.1803279 56.2903488,34.1803279 C52.7317636,34.1803279 50.9524709,32.3360656 50.9524709,28.6270492 L50.9524709,10 L50.9524709,10 Z M71.8389401,19.0368852 L71.8389401,16.557377 L75.8625678,16.557377 L75.8625678,28.5245902 C75.8625678,29.9795082 76.2062948,30.5327869 77.0959411,30.5327869 C77.3385719,30.5327869 77.6418604,30.4918033 77.945149,30.4713115 L77.945149,33.7704918 C77.5003258,33.9344262 76.8330911,34.0368852 75.963664,34.0368852 C74.9931407,34.0368852 74.2248098,33.8729508 73.6182328,33.4836066 C72.8701211,32.9713115 72.4050787,32.295082 72.2433248,31.4139344 C71.0706092,33.2172131 69.1295627,34.0983607 66.4404045,34.0983607 C64.0545349,34.0983607 62.0528307,33.2581967 60.3948534,31.5163934 C58.7773147,29.7745902 57.9685453,27.6639344 57.9685453,25.1229508 C57.9685453,22.5819672 58.7773147,20.4713115 60.3948534,18.7704918 C62.0326114,17.0286885 64.0545349,16.1885246 66.4404045,16.1885246 C69.149782,16.1885246 71.1919246,17.4180328 71.8389401,19.0368852 L71.8389401,19.0368852 Z M70.6257861,28.8729508 C71.6367478,27.8893443 72.1422287,26.6188525 72.1422287,25.1229508 C72.1422287,23.6270492 71.6367478,22.3770492 70.6257861,21.3729508 C69.6552628,20.3893443 68.4016703,19.8770492 66.9661046,19.8770492 C65.530539,19.8770492 64.3578234,20.3893443 63.3670809,21.3729508 C62.4369961,22.3565574 61.9517345,23.6270492 61.9517345,25.1229508 C61.9517345,26.6188525 62.4167769,27.8688525 63.3670809,28.8729508 C64.3376042,29.8565574 65.5103198,30.3688525 66.9661046,30.3688525 C68.4218895,30.3688525 69.6552628,29.8565574 70.6257861,28.8729508 L70.6257861,28.8729508 Z M79.3402761,37.1311475 C79.845757,37.295082 80.4725533,37.397541 81.220665,37.397541 C81.8676805,37.397541 82.3327228,37.2540984 82.6966691,37.0286885 C83.0606153,36.8032787 83.4043423,36.2704918 83.6671923,35.5737705 L84.1120155,34.3442623 L77.0352834,16.557377 L81.0791303,16.557377 L86.053062,29.4877049 L90.7237052,16.557377 L94.7877713,16.557377 L87.2055584,36.4959016 C86.7000775,37.8278689 86.0935005,38.852459 85.3858273,39.5491803 C84.3748655,40.4918033 83.0403961,40.9836066 81.3217611,40.9836066 C80.5736494,40.9836066 79.9064147,40.8811475 79.3402761,40.7172131 L79.3402761,37.1311475 L79.3402761,37.1311475 Z" id="Shape" sketch:type="MSShapeGroup"></path>
            </g>
        </g>
    </g>
</svg>