<?xml version="1.0" encoding="UTF-8" standalone="no"?>
<svg width="116px" height="66px" viewBox="0 0 116 66" version="1.1" xmlns="http://www.w3.org/2000/svg" xmlns:xlink="http://www.w3.org/1999/xlink" xmlns:sketch="http://www.bohemiancoding.com/sketch/ns">
    <!-- Generator: Sketch 3.3.2 (12043) - http://www.bohemiancoding.com/sketch -->
    <title>header-logo-spark</title>
    <desc>Created with Sketch.</desc>
    <defs></defs>
    <g id="01.Home" stroke="none" stroke-width="1" fill="none" fill-rule="evenodd" sketch:type="MSPage">
        <g id="Artboard-7" sketch:type="MSArtboardGroup" transform="translate(-634.000000, -137.000000)">
            <rect id="Rectangle-122-Copy-3" opacity="0.220207556" sketch:type="MSShapeGroup" x="634" y="137" width="116" height="66"></rect>
            <path d="M733.830961,174.208588 C733.020033,174.012781 726.73619,172.249359 726.73619,172.053359 C726.533408,172.053359 725.925262,167.938903 725.925262,167.938903 C725.925262,167.938903 727.344336,168.134903 728.965992,168.72271 C730.587649,169.114517 732.006523,169.310517 732.006523,169.310517 C732.209305,169.310517 731.398377,167.743096 730.384867,165.783674 L728.357846,162.257025 L728.965992,161.669218 C729.168574,161.277411 730.587649,159.709989 732.006523,158.338568 C733.425597,156.771147 734.439107,155.399533 734.236325,155.399533 C734.236325,155.203726 728.560628,156.771147 725.925262,157.358761 C725.722679,157.358761 725.114533,156.771147 723.695659,154.223918 C722.681949,152.46069 721.668439,150.893269 721.465856,150.893269 C721.263074,150.697269 721.060293,151.481076 720.452346,154.811726 L719.641418,159.122182 L715.384595,160.493603 C712.952011,161.277411 710.92499,161.865218 710.92499,161.865218 C710.92499,161.865218 712.344064,162.453025 713.965721,163.236639 C715.789959,163.824446 717.209033,164.412253 717.411616,164.412253 C717.614397,164.608253 713.154793,167.547096 712.749428,167.547096 C712.344064,167.547096 706.465585,164.608253 706.060021,164.216253 C704.843729,163.236639 704.641146,161.669218 705.451875,160.493603 C706.060021,159.709989 707.073531,159.318182 711.735918,157.750761 C714.168303,157.162954 716.195323,156.379147 716.195323,156.379147 C716.398105,156.379147 716.80347,154.419918 717.209033,152.068883 C717.614397,149.521655 718.019762,147.562426 718.425126,146.974619 C719.236054,145.015391 721.060293,144.427584 722.681949,145.603198 C723.087513,145.799198 724.101023,147.366619 725.519897,149.521655 C726.73619,151.481076 727.7497,153.048497 727.952482,153.048497 C727.952482,153.048497 729.979502,152.656497 732.209305,152.068883 C738.087784,150.501462 738.290367,150.501462 739.101295,150.697269 C740.317587,151.089076 740.722951,151.676883 740.722951,152.46069 C740.722951,153.636111 740.317587,154.028111 737.885002,156.771147 C736.871492,158.142568 735.249836,159.905989 734.439107,160.689603 L733.020033,162.257025 L735.249836,166.371481 C737.074274,169.898131 737.479638,170.681938 737.479638,171.465552 C737.479638,173.228974 735.6552,174.404588 733.830961,174.208588 L733.830961,174.208588 Z M711.127772,188.315379 C711.127772,188.315379 713.560157,169.898131 713.762939,168.134903 C713.965721,167.938903 718.627908,165.00006 718.627908,165.195867 C718.627908,165.195867 718.425126,167.547096 718.019762,170.289938 C717.614397,173.033166 717.411616,175.188202 717.411616,175.188202 C717.411616,175.188202 719.033272,173.620781 721.060293,171.465552 C722.884731,169.506324 724.506387,167.743096 724.709169,167.743096 C724.709169,167.743096 724.911751,168.52671 725.114533,169.702324 L725.519897,171.857552 L724.303605,172.836974 C723.695659,173.424974 722.681949,174.600395 721.871221,175.580009 L720.452346,176.95143 L724.506387,182.633501 C726.73619,185.768344 728.76321,188.315379 728.76321,188.315379 C728.76321,188.315379 727.546918,188.511379 725.925262,188.511379 L723.290095,188.511379 L720.046782,183.613115 C718.425126,181.06608 716.80347,178.910852 716.80347,179.106852 C716.80347,179.106852 716.600887,181.26208 716.195323,183.809115 L715.587377,188.315379 L713.357574,188.315379 L711.127772,188.315379 L711.127772,188.315379 Z M701.195052,187.727572 C701.195052,187.335765 701.600616,184.396922 702.00598,181.06608 C703.01949,174.600395 703.222072,174.012781 704.438365,172.836974 C705.654657,171.465552 706.870949,171.073745 709.303334,171.073745 C711.735918,170.877745 711.533136,170.681938 711.127772,173.424974 L710.92499,175.188202 L709.303334,175.188202 C707.073531,175.188202 707.073531,174.796395 706.060021,182.241501 L705.249293,188.511379 L700.99247,188.511379 L701.195052,187.727572 L701.195052,187.727572 Z M687.613655,188.511379 C684.370542,187.727572 682.140739,185.376344 681.532593,182.045694 C680.721665,177.147623 685.18127,171.661552 690.654385,170.681938 C695.316572,169.898131 699.573395,172.836974 700.384323,177.147623 C700.586906,178.323044 700.384323,179.106852 699.97876,183.221308 C699.573395,185.768344 699.370813,188.119379 699.370813,188.119379 C699.370813,188.315379 698.762667,188.511379 697.343593,188.511379 C696.1275,188.511379 695.316572,188.315379 695.316572,188.315379 C695.316572,188.119379 695.519354,186.355958 695.721937,184.396922 C696.330083,180.282273 696.330083,178.910852 695.924718,177.735237 C695.11399,174.208588 690.451603,173.424974 687.613655,176.363816 C686.397562,177.34343 685.789416,178.519044 685.789416,179.890466 C685.384052,184.200922 689.843457,186.355958 693.694916,183.809115 L694.708426,183.025308 L694.303062,185.376344 C694.303062,186.747958 694.10028,187.923572 693.897698,187.923572 C693.897698,187.923572 693.492334,188.119379 692.884188,188.315379 C691.465114,188.707186 688.627365,188.903186 687.613655,188.511379 L687.613655,188.511379 Z M648.491319,188.707186 C647.072445,188.315379 645.856153,187.531572 645.248007,186.551958 C644.63986,185.768344 643.829132,184.396922 644.031714,184.004922 C644.031714,183.809115 648.085955,181.653694 648.288737,181.849694 C648.288737,181.849694 648.491319,182.241501 648.896683,182.829501 C649.099465,183.417115 649.707611,184.004922 649.910194,184.200922 C651.734632,185.376344 654.977945,184.004922 654.977945,182.045694 C654.977945,181.26208 654.167216,180.282273 652.139996,178.127237 C648.694101,174.796395 647.883173,173.424974 647.883173,171.269745 C647.883173,166.371481 654.775163,162.648832 659.234768,165.195867 C660.248278,165.783674 661.869935,167.547096 661.869935,167.938903 C662.072716,168.134903 658.018476,171.073745 658.018476,170.877745 C657.613111,170.289938 656.802383,169.310517 656.194237,168.918517 C654.977945,168.134903 652.950924,168.918517 652.54556,170.094131 C652.342778,171.073745 652.748142,171.465552 655.991455,174.796395 C659.43755,178.519044 660.045696,180.086466 659.234768,183.025308 C658.018476,187.139765 652.950924,189.8828 648.491319,188.707186 L648.491319,188.707186 Z M672.005237,184.396922 C674.235039,183.613115 675.856696,181.26208 675.856696,179.106852 C675.856696,174.600395 670.180998,173.033166 666.937686,176.559816 C664.707883,178.910852 664.707883,182.045694 666.734904,183.809115 C667.34305,184.200922 667.951196,184.592729 668.35656,184.592729 C669.37007,184.984537 670.991727,184.788729 672.005237,184.396922 L672.005237,184.396922 Z M659.234768,193.213643 C659.234768,193.017643 659.842914,189.6868 660.248278,185.964151 C660.856424,182.241501 661.261788,178.715044 661.46457,178.127237 C662.275299,175.580009 664.707883,172.836974 667.34305,171.661552 C672.005237,169.310517 677.072988,170.877745 679.30279,175.188202 C679.910937,176.363816 679.910937,176.755623 679.910937,178.519044 C679.910937,180.67408 679.30279,182.241501 677.883716,184.200922 C675.045967,188.315379 669.572852,189.8828 665.721393,187.923572 C664.910665,187.727572 664.302519,187.335765 664.099737,187.335765 C664.099737,187.335765 663.896955,188.511379 663.694373,190.0788 C663.289009,194.193257 663.491591,193.801257 661.261788,193.801257 C659.234768,193.801257 659.234768,193.60545 659.234768,193.213643 L659.234768,193.213643 Z" id="Spark" fill="#FFFFFF" sketch:type="MSShapeGroup"></path>
        </g>
    </g>
</svg>