<?xml version="1.0" encoding="UTF-8" standalone="no"?>
<svg width="148px" height="66px" viewBox="0 0 148 66" version="1.1" xmlns="http://www.w3.org/2000/svg" xmlns:xlink="http://www.w3.org/1999/xlink" xmlns:sketch="http://www.bohemiancoding.com/sketch/ns">
    <!-- Generator: Sketch 3.3.2 (12043) - http://www.bohemiancoding.com/sketch -->
    <title>header-logo-akka</title>
    <desc>Created with Sketch.</desc>
    <defs></defs>
    <g id="01.Home" stroke="none" stroke-width="1" fill="none" fill-rule="evenodd" sketch:type="MSPage">
        <g id="Artboard-7" sketch:type="MSArtboardGroup" transform="translate(-327.000000, -137.000000)">
            <rect id="Rectangle-122-Copy" opacity="0.220207556" sketch:type="MSShapeGroup" x="327" y="137" width="148" height="66"></rect>
            <g id="Akka" sketch:type="MSLayerGroup" transform="translate(337.000000, 159.000000)">
                <g id="text" transform="translate(52.660775, 2.142857)"></g>
                <path d="M66.9884949,11.6785714 L66.9884949,9.06428571 L71.0850701,9.06428571 L71.0850701,21.5785714 C71.0850701,23.1 71.4350288,23.6785714 72.3408042,23.6785714 C72.5878339,23.6785714 72.896621,23.6357143 73.1848223,23.6142857 L73.1848223,27.0642857 C72.7319345,27.2357143 72.052603,27.3428571 71.1674134,27.3428571 C70.1792947,27.3428571 69.3970341,27.1714286 68.77946,26.7642857 C68.0177852,26.2285714 67.5443117,25.5214286 67.3796252,24.6 C66.1856485,26.4857143 64.2094112,27.4071429 61.4714991,27.4071429 C59.0423741,27.4071429 57.0043794,26.5285714 55.3163434,24.7071429 C53.669479,22.8857143 52.8460468,20.6785714 52.8460468,18.0214286 C52.8460468,15.3642857 53.669479,13.1571429 55.3163434,11.3785714 C56.9837936,9.55714286 59.0423741,8.67857143 61.4714991,8.67857143 C64.2711686,8.67857143 66.350335,9.96428571 66.9884949,11.6785714 L66.9884949,11.6785714 Z M65.7739324,21.9428571 C66.8032227,20.9142857 67.3178678,19.5857143 67.3178678,18.0214286 C67.3178678,16.4571429 66.8032227,15.15 65.7739324,14.1 C64.7858138,13.0714286 63.5094938,12.5357143 62.0479017,12.5357143 C60.5863095,12.5357143 59.3923328,13.0714286 58.3836284,14.1 C57.4366813,15.1285714 56.942622,16.4571429 56.942622,18.0214286 C56.942622,19.5857143 57.4160955,20.8928571 58.3836284,21.9428571 C59.371747,22.9714286 60.5657237,23.5071429 62.0479017,23.5071429 C63.5094938,23.5071429 64.7858138,22.9714286 65.7739324,21.9428571 L65.7739324,21.9428571 Z M74.9963731,27 L74.9963731,2.20714286 L79.0723625,2.20714286 L79.0723625,16.6928571 L85.4333763,9.08571429 L90.1269399,9.08571429 L83.3953816,17.1 L90.8474431,27.0214286 L86.1950511,27.0214286 L80.7603986,19.8 L79.0517767,21.7928571 L79.0517767,27 L74.9963731,27 L74.9963731,27 Z M91.9384907,27 L91.9384907,2.20714286 L96.0144802,2.20714286 L96.0144802,16.6928571 L102.375494,9.08571429 L107.089643,9.08571429 L100.358085,17.1 L107.810147,27.0214286 L103.157755,27.0214286 L97.723102,19.8 L96.0144802,21.7928571 L96.0144802,27 L91.9384907,27 L91.9384907,27 Z M120.16163,11.6785714 L120.16163,9.06428571 L124.258205,9.06428571 L124.258205,21.5785714 C124.258205,23.1 124.608164,23.6785714 125.513939,23.6785714 C125.760969,23.6785714 126.069756,23.6357143 126.357957,23.6142857 L126.357957,27.0642857 C125.905069,27.2357143 125.225738,27.3428571 124.340548,27.3428571 C123.352429,27.3428571 122.570169,27.1714286 121.952595,26.7642857 C121.19092,26.2285714 120.717446,25.5214286 120.55276,24.6 C119.358783,26.4857143 117.382546,27.4071429 114.644634,27.4071429 C112.215509,27.4071429 110.177514,26.5285714 108.489478,24.7071429 C106.842614,22.8857143 106.019181,20.6785714 106.019181,18.0214286 C106.019181,15.3642857 106.842614,13.1571429 108.489478,11.3785714 C110.156928,9.55714286 112.215509,8.67857143 114.644634,8.67857143 C117.423718,8.67857143 119.502884,9.96428571 120.16163,11.6785714 L120.16163,11.6785714 Z M118.926481,21.9428571 C119.955772,20.9142857 120.470417,19.5857143 120.470417,18.0214286 C120.470417,16.4571429 119.955772,15.15 118.926481,14.1 C117.938363,13.0714286 116.662043,12.5357143 115.200451,12.5357143 C113.738858,12.5357143 112.544882,13.0714286 111.536177,14.1 C110.58923,15.1285714 110.095171,16.4571429 110.095171,18.0214286 C110.095171,19.5857143 110.568644,20.8928571 111.536177,21.9428571 C112.524296,22.9714286 113.718273,23.5071429 115.200451,23.5071429 C116.662043,23.5071429 117.938363,22.9714286 118.926481,21.9428571 L118.926481,21.9428571 Z" id="Shape" fill="#FFFFFF" sketch:type="MSShapeGroup"></path>
                <path d="M41.2333677,34.6714286 C48.6236717,40.8214286 53.3584069,22.4571429 41.5833264,19.0714286 C31.7021399,16.2214286 21.759196,21.1071429 11.7956663,32.5071429 C11.7956663,32.5071429 30.1993761,25.5 41.2333677,34.6714286 L41.2333677,34.6714286 Z" id="Shape" opacity="0.2" fill="#FFFFFF" sketch:type="MSShapeGroup"></path>
                <path d="M11.9603528,32.3571429 C19.0418698,24.7071429 30.8169503,16.1785714 41.7891844,19.3285714 C44.3418243,20.0785714 46.1533751,21.6214286 47.326766,23.4642857 L36.9515202,1.67142857 C35.4693423,-0.792857143 31.6815541,-0.278571429 29.5406304,1.60714286 L2.12033793,25.5214286 C-0.370544493,27.75 -0.514645129,31.7142857 1.79096505,34.1142857 C3.82895976,36.2357143 7.06093116,36.4285714 9.30478392,34.5428571 L11.9603528,32.3571429 L11.9603528,32.3571429 Z" id="Shape" fill="#FFFFFF" sketch:type="MSShapeGroup"></path>
            </g>
        </g>
    </g>
</svg>