<?xml version="1.0" encoding="UTF-8" standalone="no"?>
<svg width="127px" height="66px" viewBox="0 0 127 66" version="1.1" xmlns="http://www.w3.org/2000/svg" xmlns:xlink="http://www.w3.org/1999/xlink" xmlns:sketch="http://www.bohemiancoding.com/sketch/ns">
    <!-- Generator: Sketch 3.3.2 (12043) - http://www.bohemiancoding.com/sketch -->
    <title>header-logo-scala</title>
    <desc>Created with Sketch.</desc>
    <defs>
        <path id="path-1" d="M21.7709839,29.2464522 C18.0101109,30.3170147 12.885424,31.1404356 8.25649374,31.5933363 C5.11560644,31.9226661 2.2225975,32.0874272 0.0320715564,32.0874272 L0.0320715564,42.4219551 C3.66910197,42.4219551 15.117102,41.2280142 21.9777102,39.3340308 C24.498805,38.6339884 26.8545188,37.8517579 26.8545188,36.9869543 L26.8545188,26.6524264 C26.8545188,27.6406084 24.2920787,28.5052195 21.7709839,29.2464522 L21.7709839,29.2464522 Z"></path>
    </defs>
    <g id="01.Home" stroke="none" stroke-width="1" fill="none" fill-rule="evenodd" sketch:type="MSPage">
        <g id="Artboard-7" sketch:type="MSArtboardGroup" transform="translate(-178.000000, -137.000000)">
            <rect id="Rectangle-122" opacity="0.220207556" sketch:type="MSShapeGroup" x="178" y="137" width="127" height="66"></rect>
            <g id="Scala" sketch:type="MSLayerGroup" transform="translate(188.000000, 156.000000)">
                <path d="M34.2108837,25.3349146 C35.4095098,27.6817987 37.3519642,28.8347418 40.0382469,28.8347418 C42.9312558,28.8347418 43.9645009,27.3112785 43.9645009,25.8290056 C43.9645009,24.7996333 43.5925868,24.0995909 42.6420322,23.4821215 C41.6914776,22.8232694 40.9888014,22.5351299 39.2530733,21.8762777 C37.1452379,21.0940472 35.8641145,20.4763853 34.5416458,19.4058228 C33.2189839,18.2942624 32.5578462,16.8119895 32.5578462,14.8768158 C32.5578462,13.0240228 33.2603292,11.5005595 34.6243363,10.3476164 C36.0294955,9.19467328 37.7238784,8.6183942 39.7490233,8.6183942 C42.9312558,8.6183942 45.2869696,9.89471571 46.8988551,12.3651706 L43.9231556,14.3827249 C43.0139463,13.0240228 41.6501324,12.3239803 39.7903685,12.3239803 C37.9717567,12.3239803 36.6079428,13.3533526 36.6079428,14.7944353 C36.6079428,15.7414269 37.0213953,16.1943276 37.5584973,16.8119895 C37.9306047,17.0589387 38.8811592,17.4706492 39.2944186,17.7177909 L40.4928515,18.1706916 L41.8566655,18.7059729 C44.0471914,19.6117742 45.6177317,20.5587659 46.6096315,21.5881382 C47.560186,22.6175104 48.056136,24.0174028 48.056136,25.746625 C48.056136,29.8229238 45.2456243,32.5815182 39.9144043,32.5815182 C35.6162361,32.5815182 32.4338104,30.563964 30.9873059,27.3112785 L34.2108837,25.3349146 L34.2108837,25.3349146 Z" id="object" fill="#FFFFFF" sketch:type="MSShapeGroup"></path>
                <path d="M65.000737,17.8001715 L62.5211807,20.3528145 C61.3638998,19.1176833 59.9173953,18.5412117 58.2643578,18.5412117 C56.8178533,18.5412117 55.5778819,19.0353027 54.5859821,20.0234846 C53.6354275,21.0116666 53.1394776,22.2879881 53.1394776,23.7702611 C53.1394776,25.252534 53.6354275,26.5288555 54.5859821,27.5170375 C55.5778819,28.5052195 56.8178533,28.9993105 58.2643578,28.9993105 C59.9173953,28.9993105 61.3638998,28.3818411 62.5211807,27.1877077 L65.000737,29.7405432 C63.1823184,31.6757168 60.9506404,32.6227085 58.2643578,32.6227085 C55.7019177,32.6227085 53.5113918,31.7990952 51.7756637,30.1110633 C49.9985903,28.4230314 49.1305331,26.2819063 49.1305331,23.7702611 C49.1305331,21.2586159 49.9985903,19.1588735 51.7756637,17.4706492 C53.552737,15.7826172 55.7019177,14.9180061 58.2643578,14.9180061 C60.9919857,14.9180061 63.2236637,15.8649978 65.000737,17.8001715 L65.000737,17.8001715 Z" id="object" fill="#FFFFFF" sketch:type="MSShapeGroup"></path>
                <path d="M72.4813309,29.2464522 C75.1676136,29.2464522 76.7794991,28.0523188 76.7794991,25.9113862 L76.7794991,24.0585931 C76.6141181,24.2643521 76.3248945,24.4291132 75.9529803,24.5526841 C75.2089589,24.7996333 74.6716637,24.8820139 73.1013166,25.0465826 C70.7867549,25.2937243 69.6296673,26.0347646 69.6296673,27.1877077 C69.588322,28.5052195 70.6629123,29.2464522 72.4813309,29.2464522 L72.4813309,29.2464522 Z M72.9359356,21.9586583 C75.746254,21.711709 76.7794991,21.2998062 76.7794991,20.0234846 C76.7794991,18.9941124 75.8702898,18.2118819 74.0105259,18.2118819 C72.1921073,18.2118819 70.7042576,18.9529221 69.5056315,20.3940048 L67.0258819,18.2942624 C68.6377674,15.9883762 70.952136,14.8768158 73.9278354,14.8768158 C78.1019678,14.8768158 80.7057531,16.8941776 80.7057531,20.3116242 L80.7057531,27.722989 C80.7057531,28.8757396 81.1603578,29.0405008 82.1109123,29.0405008 L82.1936029,29.0405008 L82.1936029,32.1286175 C81.7803435,32.3755668 81.1603578,32.4991376 80.333839,32.4991376 C79.4246297,32.4991376 78.7219535,32.2521884 78.2260036,31.7167146 C77.9781252,31.4697654 77.7713989,31.0992453 77.6060179,30.6051543 C76.4489302,31.9638564 74.5478211,32.6638988 71.9026905,32.6638988 C68.2245081,32.6638988 65.7034132,30.6463446 65.7034132,27.5994181 C65.7034132,24.1407812 68.0177818,22.411559 72.9359356,21.9586583 L72.9359356,21.9586583 Z" id="object" fill="#FFFFFF" sketch:type="MSShapeGroup"></path>
                <path d="M83.1855027,9.03010461 L87.194254,9.03010461 L87.194254,26.6936167 C87.194254,28.2994605 87.7315492,28.9993105 89.2193989,28.9993105 C89.6740036,28.9993105 90.087263,28.9581202 90.418025,28.8757396 L90.418025,32.4167571 C89.9634204,32.5403279 89.3020894,32.6227085 88.5169159,32.6227085 C85.0039213,32.6227085 83.2268479,30.8109132 83.2268479,27.1877077 L83.2268479,9.03010461 L83.1855027,9.03010461 L83.1855027,9.03010461 Z" id="object" fill="#FFFFFF" sketch:type="MSShapeGroup"></path>
                <path d="M98.1464973,29.2464522 C100.83278,29.2464522 102.444665,28.0523188 102.444665,25.9113862 L102.444665,24.0585931 C102.279284,24.2643521 101.990061,24.4291132 101.618147,24.5526841 C100.874125,24.7996333 100.33683,24.8820139 98.7662898,25.0465826 C96.4519213,25.2937243 95.2948336,26.0347646 95.2948336,27.1877077 C95.2534884,28.5052195 96.2867335,29.2464522 98.1464973,29.2464522 L98.1464973,29.2464522 Z M98.601102,21.9586583 C101.41142,21.711709 102.444665,21.2998062 102.444665,20.0234846 C102.444665,18.9941124 101.535456,18.2118819 99.6754991,18.2118819 C97.8570805,18.2118819 96.3692308,18.9529221 95.1707979,20.3940048 L92.6910483,18.2942624 C94.3029338,15.9883762 96.6173023,14.8768158 99.5930018,14.8768158 C103.767134,14.8768158 106.370919,16.8941776 106.370919,20.3116242 L106.370919,27.722989 C106.370919,28.8757396 106.825524,29.0405008 107.776079,29.0405008 L107.858576,29.0405008 L107.858576,32.1286175 C107.445317,32.3755668 106.825524,32.4991376 105.998812,32.4991376 C105.089603,32.4991376 104.38712,32.2521884 103.89117,31.7167146 C103.643098,31.4697654 103.436565,31.0992453 103.271184,30.6051543 C102.114097,31.9638564 100.212987,32.6638988 97.5678569,32.6638988 C93.8894812,32.6638988 91.3685796,30.6463446 91.3685796,27.5994181 C91.3272343,24.1407812 93.6416029,22.411559 98.601102,21.9586583 L98.601102,21.9586583 Z" id="object" fill="#FFFFFF" sketch:type="MSShapeGroup"></path>
                <path d="M21.7709839,2.60692181 C15.4476708,4.41852459 5.44617531,5.44789685 0.0320715564,5.44789685 L0.0320715564,15.7002367 C0.0320715564,15.7002367 0.0320715564,15.7414269 0.0734168157,15.7826172 C3.75179249,15.7826172 15.117102,14.5884838 21.9777102,12.6945005 C23.3001789,12.3239803 24.5813023,11.9534602 25.4907048,11.5417498 C26.3172236,11.1710372 26.8545188,10.7593268 26.8545188,10.3476164 L26.8545188,0.0130885029 C26.8545188,1.04246076 24.2920787,1.90707186 21.7709839,2.60692181 L21.7709839,2.60692181 Z" id="object" fill="#FFFFFF" sketch:type="MSShapeGroup"></path>
                <path d="M21.7709839,15.9473784 C18.0101109,17.0177485 12.885424,17.8411693 8.25649374,18.2942624 C5.1569517,18.6235923 2.2225975,18.7883534 0.0320715564,18.7883534 L0.0320715564,29.0405008 C0.0320715564,29.0405008 0.0320715564,29.081691 0.0734168157,29.1228813 C3.75179249,29.1228813 15.117102,27.9289404 21.9777102,26.0347646 C23.3001789,25.6642444 24.5813023,25.2937243 25.4907048,24.8820139 C26.3172236,24.5114938 26.8545188,24.0995909 26.8545188,23.6878805 L26.8545188,13.3533526 C26.8545188,14.3415346 24.2920787,15.2061457 21.7709839,15.9473784 L21.7709839,15.9473784 Z" id="object" fill="#FFFFFF" sketch:type="MSShapeGroup"></path>
                <mask id="mask-2" sketch:name="object" fill="white">
                    <use xlink:href="#path-1"></use>
                </mask>
                <use id="object" fill="#FFFFFF" sketch:type="MSShapeGroup" xlink:href="#path-1"></use>
            </g>
        </g>
    </g>
</svg>